<?xml version="1.0" encoding="utf-8"?>
<!-- Generator: Adobe Illustrator 18.0.0, SVG Export Plug-In . SVG Version: 6.00 Build 0)  -->
<!DOCTYPE svg PUBLIC "-//W3C//DTD SVG 1.1//EN" "http://www.w3.org/Graphics/SVG/1.1/DTD/svg11.dtd">
<svg version="1.1" id="Layer_1" xmlns="http://www.w3.org/2000/svg" xmlns:xlink="http://www.w3.org/1999/xlink" x="0px" y="0px"
	 viewBox="0 0 137 151.6" enable-background="new 0 0 137 151.6" xml:space="preserve">
<g>
	<path fill="#1C75BC" d="M126,128.7h-0.9c1.6-1.1,2.6-3,2.6-5.1v-19.5c0-3.5-2.8-6.3-6.2-6.3H87.9c-3.4,0-6.2,2.8-6.2,6.3v19.5
		c0,2.1,1,4,2.6,5.1h-0.9c-2.8,0-5,2.3-5,5.1c0,2.8,2.3,5.1,5,5.1H126c2.8,0,5-2.3,5-5.1C131.1,131,128.8,128.7,126,128.7z
		 M86.5,104.1c0-0.8,0.7-1.5,1.5-1.5h33.5c0.8,0,1.5,0.7,1.5,1.5v19.5c0,0.8-0.7,1.5-1.5,1.5H87.9c-0.8,0-1.5-0.7-1.5-1.5v-19.5
		H86.5z M126,134.1H83.4c-0.2,0-0.3-0.1-0.3-0.3s0.1-0.3,0.3-0.3H126c0.2,0,0.3,0.1,0.3,0.3S126.2,134.1,126,134.1z"/>
	<path fill="#1C75BC" d="M53.7,44.9h-0.9c1.6-1.1,2.6-3,2.6-5.1V20.3c0-3.5-2.8-6.3-6.2-6.3H15.6c-3.4,0-6.2,2.8-6.2,6.3v19.5
		c0,2.1,1,4,2.6,5.1h-0.9c-2.8,0-5,2.3-5,5.1c0,2.8,2.3,5.1,5,5.1h42.6c2.8,0,5-2.3,5-5.1C58.7,47.1,56.5,44.9,53.7,44.9z
		 M14.2,20.2c0-0.8,0.7-1.5,1.5-1.5h33.6c0.8,0,1.5,0.7,1.5,1.5v19.5c0,0.8-0.7,1.5-1.5,1.5H15.7c-0.8,0-1.5-0.7-1.5-1.5
		C14.2,39.7,14.2,20.2,14.2,20.2z M53.7,50.3H11.1c-0.2,0-0.3-0.1-0.3-0.3s0.1-0.3,0.3-0.3h42.6c0.2,0,0.3,0.1,0.3,0.3
		S53.9,50.3,53.7,50.3z"/>
	<path fill="#545662" d="M68.5,27.1c-4.5,0-8.9,0.7-13.1,1.8v10.8c0,2.1-1,4-2.6,5.1h0.8c3.3-6.9,7.7-11.5,12.5-12.7v15.1
		c-2.7,0-5.4,0.1-8,0.3c0.4,0.7,0.6,1.5,0.6,2.4s-0.2,1.7-0.6,2.4c2.7-0.2,5.3-0.3,8-0.3v22h-19c0.2-6.8,1.1-13.2,2.7-19h-5
		c-1.4,5.8-2.3,12.2-2.5,19H24.5c0.3-6.3,2-12.2,4.6-17.5v0.2c2.5-0.6,5-1.1,7.4-1.6H24.4c-3.1,6.5-4.8,13.7-4.8,21.4
		c0,27.2,21.8,49.4,48.7,49.4c4.6,0,9.1-0.7,13.3-1.9c0-0.1,0-0.2,0-0.4v-12.5c-3.1,5.2-6.8,8.6-10.9,9.6v-15.1
		c3.6-0.1,7.3-0.2,10.9-0.5V104c0-1.5,0.5-2.8,1.3-3.9c-4.1,0.4-8.1,0.6-12.2,0.6v-22h19c-0.2,6.8-1.2,13.3-2.7,19
		c0.3,0,0.5-0.1,0.8-0.1H92c1.4-5.8,2.3-12.2,2.5-19h17.8c-0.3,6.3-2,12.2-4.6,17.5v-0.2c-2.5,0.6-5,1.1-7.4,1.6h12.1
		c3.1-6.5,4.8-13.7,4.8-21.4C117.2,49.2,95.3,27.1,68.5,27.1z M29.2,96.4c-2.6-5.3-4.3-11.3-4.6-17.5h17.8
		c0.2,7.4,1.2,14.3,2.8,20.4c-5.4-0.8-10.7-1.8-16-3V96.4z M32.4,101.8c4.8,1,9.6,1.8,14.4,2.5c2.1,5.9,4.9,10.9,8.1,14.5
		C45.7,115.8,37.8,109.7,32.4,101.8z M66.1,120.7c-5.5-1.3-10.5-7.3-13.9-15.8c4.6,0.4,9.3,0.7,13.9,0.8V120.7z M66.1,100.8
		c-5.2-0.1-10.5-0.4-15.7-1c-1.9-6.2-3.1-13.4-3.3-21h19V100.8z M70.9,32.2c5.5,1.3,10.5,7.3,13.9,15.8c-4.6-0.4-9.3-0.7-13.9-0.8
		V32.2z M70.9,74V52c5.2,0.1,10.5,0.4,15.7,1c1.9,6.2,3.1,13.4,3.3,21H70.9z M82.1,34.1c9.2,3,17.1,9.1,22.5,17
		c-4.8-1-9.6-1.8-14.4-2.5C88.1,42.7,85.3,37.7,82.1,34.1z M94.6,74c-0.2-7.4-1.2-14.3-2.8-20.4c5.4,0.8,10.7,1.8,16,3v-0.2
		c2.6,5.3,4.3,11.3,4.6,17.5H94.6V74z"/>
</g>
</svg>
