<?xml version="1.0" encoding="utf-8"?>
<!-- Generator: Adobe Illustrator 17.1.0, SVG Export Plug-In . SVG Version: 6.00 Build 0)  -->
<!DOCTYPE svg PUBLIC "-//W3C//DTD SVG 1.1//EN" "http://www.w3.org/Graphics/SVG/1.1/DTD/svg11.dtd">
<svg version="1.1" id="cloud" xmlns="http://www.w3.org/2000/svg" xmlns:xlink="http://www.w3.org/1999/xlink" x="0px" y="0px"
	 viewBox="0 0 1009.961 1009.961" enable-background="new 0 0 1009.961 1009.961" xml:space="preserve">
<g id="cloud-cloud">
	<g id="cloud-label">
		<path fill="#2C5871" d="M504.9805,1009.961C226.0972,1009.961,0,783.8731,0,504.9756C0,226.0923,226.0972,0,504.9805,0
			c278.8828,0,504.9805,226.0923,504.9805,504.9756C1009.961,783.8731,783.8633,1009.961,504.9805,1009.961z"/>
	</g>
	<path id="cloud-shadow" opacity="0.2" d="M969.3946,674.2871c-1.5782-1.6914-3.2149-3.3388-4.9121-4.9023
		c-1.5782-1.7109-3.2247-3.3477-4.9307-4.9356c-1.5781-1.707-3.2256-3.3339-4.9219-4.9169
		c-1.5683-1.6914-3.1953-3.3194-4.9014-4.8916c-1.5585-1.6973-3.1865-3.3194-4.873-4.8877c-1.588-1.711-3.2344-3.3536-4.9415-4.9463
		c-1.5684-1.6866-3.1758-3.2989-4.8623-4.8575c-1.5977-1.7207-3.2451-3.3779-4.9707-4.9755
		c-1.5781-1.7022-3.2148-3.3389-4.9209-4.9219c-1.5488-1.667-3.166-3.2744-4.8438-4.8329
		c-1.5976-1.7256-3.2636-3.3779-4.9707-4.9805c-1.5781-1.6914-3.205-3.3144-4.8916-4.8867
		c-1.5781-1.6973-3.2158-3.3389-4.9121-4.9121c-1.5781-1.6913-3.1953-3.3145-4.8818-4.8867
		c-1.5879-1.7071-3.2451-3.3536-4.9512-4.9512c-1.5683-1.6816-3.1953-3.3047-4.8721-4.877
		c-1.5781-1.6923-3.2158-3.3339-4.9218-4.9121c-1.5879-1.707-3.2354-3.3681-4.961-4.956c-1.5586-1.6817-3.1757-3.294-4.8525-4.8623
		c-1.5879-1.7012-3.2245-3.3487-4.9316-4.9268c-1.5782-1.6963-3.2149-3.3389-4.9122-4.917
		c-1.5771-1.6963-3.205-3.3281-4.9013-4.8965c-1.5781-1.7011-3.2158-3.3291-4.9014-4.9121
		c-1.5781-1.7011-3.2256-3.3335-4.9121-4.9116c-1.5879-1.7065-3.2451-3.3579-4.9512-4.9463
		c-1.5586-1.6714-3.1855-3.289-4.8623-4.8472c-1.5781-1.7114-3.2256-3.3632-4.9414-4.9413
		c-1.5781-1.7065-3.2158-3.3438-4.9219-4.9316c-1.5576-1.6963-3.205-3.3291-4.8916-4.897
		c-1.5878-1.6914-3.2255-3.3383-4.9121-4.9018c-1.5781-1.6963-3.1953-3.3286-4.8916-4.9019
		c-1.5879-1.6968-3.2158-3.3286-4.9121-4.9067c-1.5674-1.7012-3.2148-3.3438-4.9111-4.9121
		c-1.5781-1.7061-3.2354-3.3531-4.9316-4.9361c-1.5781-1.6914-3.2158-3.3139-4.9023-4.9018
		c-1.5879-1.711-3.2441-3.3487-4.9512-4.9365c-1.5586-1.6768-3.1562-3.2842-4.8418-4.8428
		c-1.5879-1.7256-3.2558-3.3779-4.9814-4.9854c-1.5479-1.6767-3.1758-3.2993-4.8622-4.8476
		c-1.5781-1.711-3.1953-3.3438-4.9121-4.9219c-1.5781-1.7012-3.2149-3.3433-4.9112-4.9214
		c-1.5781-1.7065-3.2255-3.353-4.9316-4.9165c-1.5781-1.7065-3.2158-3.334-4.9014-4.917c-1.5683-1.6816-3.1963-3.3037-4.8828-4.8769
		c-1.5879-1.7163-3.2441-3.3633-4.9609-4.9659c-1.5684-1.6816-3.2051-3.3144-4.8916-4.8823
		c-1.5781-1.7016-3.2158-3.3384-4.9024-4.9116c-1.5781-1.6963-3.2148-3.334-4.9013-4.9072
		c-1.5879-1.6866-3.2158-3.3282-4.9219-4.8965c-1.5781-1.7114-3.2245-3.3535-4.9316-4.9414
		c-1.5782-1.6865-3.1954-3.3237-4.8916-4.8819c-1.5782-1.7114-3.2159-3.3486-4.9024-4.9218
		c-1.5781-1.6914-3.2148-3.334-4.9111-4.9019c-14.2715-15.3813-33.6426-25.8999-55.4785-28.8491
		c-1.4405-1.6221-2.9893-3.1563-4.6162-4.6006c-1.5489-1.751-3.2061-3.3984-4.9317-4.9463
		c-1.5381-1.7265-3.1758-3.3486-4.8916-4.8877c-1.5391-1.7256-3.1758-3.3628-4.9121-4.9062
		c-1.5586-1.7412-3.1855-3.378-4.9316-4.9219c-1.5284-1.7407-3.1758-3.3633-4.9014-4.8965
		c-1.5293-1.7363-3.166-3.3686-4.8926-4.9023c-1.5576-1.7408-3.2051-3.4024-4.9414-4.9366
		c-1.5283-1.7255-3.1553-3.3584-4.8916-4.8867c-10.3662-11.7221-25.4658-19.1635-42.332-19.1635
		c-7.6729,0-14.9024,1.6372-21.5801,4.4184c-0.7197-0.7246-1.4785-1.4004-2.2188-2.1006c-1.5976-1.6963-3.2246-3.3388-4.9316-4.9267
		c-1.5781-1.6914-3.2148-3.3286-4.9014-4.9019c-1.5879-1.6963-3.2158-3.3335-4.9218-4.9116
		c-1.5782-1.7012-3.2154-3.3438-4.9117-4.9316c-1.5781-1.6817-3.2153-3.3135-4.9116-4.8917
		c-1.5781-1.6914-3.2055-3.3339-4.9023-4.9121c-19.0943-20.3271-46.1485-33.0752-76.2793-33.0752
		c-57.8067,0-104.6944,46.8687-104.6944,104.6895c0,4.1572,0.2857,8.1963,0.7295,12.2305
		c-19.4892,1.7358-34.8159,18.1035-34.8159,38.0903c0,8.9409,3.0972,17.1616,8.2256,23.6265
		c-3.2446,2.1748-6.2529,4.7295-9.0737,7.3974c-10.2871,9.6753-17.5957,22.3145-20.6533,36.6211
		c-1.0254,4.8125-1.6963,9.749-1.6963,14.8433c0,20.7959,9.0346,39.4614,23.3359,52.4165c1.5283,1.7158,3.1758,3.3438,4.8818,4.9019
		c1.5586,1.7261,3.2056,3.3633,4.9317,4.9263c1.5586,1.7315,3.2153,3.3682,4.9316,4.9316c1.5581,1.711,3.1758,3.3292,4.8916,4.877
		c1.5391,1.7217,3.1758,3.3486,4.8921,4.9023c1.5484,1.7159,3.1958,3.3585,4.9116,4.9219c1.5684,1.7158,3.1856,3.3477,4.9121,4.9112
		c1.5679,1.7158,3.2051,3.3584,4.9312,4.9169c1.5581,1.7207,3.1763,3.3438,4.8823,4.8965c1.5684,1.7315,3.2051,3.3682,4.9214,4.917
		c1.5581,1.7207,3.2056,3.3584,4.9214,4.917c1.5684,1.7256,3.206,3.3633,4.9219,4.9258c1.5586,1.7109,3.1757,3.3291,4.8921,4.8769
		c1.5483,1.7315,3.1958,3.3692,4.9018,4.9317c1.5684,1.7217,3.2051,3.3486,4.9214,4.9023c1.5483,1.7159,3.1958,3.3477,4.9019,4.9063
		c1.5585,1.7264,3.1958,3.3633,4.9218,4.917c1.5581,1.7158,3.1856,3.3535,4.9014,4.9111c1.5586,1.7217,3.2061,3.3594,4.9316,4.9219
		c1.5288,1.6971,3.1563,3.3193,4.8623,4.8633c1.5684,1.7402,3.2256,3.3974,4.9512,4.9648c1.5586,1.7217,3.2056,3.3535,4.9121,4.9072
		c1.5581,1.7159,3.1953,3.3438,4.9116,4.912c1.5484,1.7012,3.1758,3.3233,4.8824,4.877c1.5581,1.7314,3.2246,3.3926,4.9707,4.9707
		c1.5385,1.6963,3.166,3.3242,4.872,4.8721c1.5489,1.701,3.1758,3.334,4.8921,4.8925c1.5484,1.7256,3.2056,3.3731,4.9312,4.9366
		c1.5488,1.7158,3.186,3.3427,4.8926,4.8916c1.5678,1.7265,3.2148,3.3779,4.9414,4.9365c1.5581,1.7109,3.1855,3.3437,4.8916,4.8965
		c1.5781,1.7265,3.2256,3.3681,4.9414,4.9365c1.5483,1.7012,3.166,3.334,4.872,4.8828c1.5586,1.7012,3.1856,3.333,4.9122,4.8916
		c1.0058,1.1289,2.0415,2.2393,3.1362,3.3037c-28.6909-6.5732-55.0747-20.9238-76.4077-42.2519l-15.4063,15.4101
		c1.6475,1.6475,3.4424,3.0879,5.1485,4.6651l-0.2364,0.2422c1.6568,1.6513,3.4419,3.0918,5.1485,4.6699l-0.2368,0.2471
		c1.6469,1.6464,3.4516,3.0917,5.1484,4.6542l-0.2466,0.2422c1.6572,1.6524,3.4522,3.1016,5.168,4.6797l-0.2564,0.2422
		c1.647,1.6465,3.4419,3.0918,5.1485,4.6748l-0.2368,0.2266c1.6669,1.6523,3.4619,3.0918,5.1484,4.6699l-0.2363,0.2422
		c1.6665,1.6465,3.4619,3.0918,5.1582,4.6748l-0.2369,0.2412c1.6373,1.6475,3.4517,3.0869,5.1485,4.665l-0.2466,0.2422
		c1.6572,1.6524,3.4424,3.0918,5.1582,4.6748l-0.2466,0.2411c1.6568,1.6475,3.4522,3.0928,5.1685,4.6709l-0.2471,0.2365
		c1.6475,1.6523,3.4424,3.0917,5.1387,4.6699l-0.2363,0.2422c1.6567,1.6465,3.4516,3.0918,5.1484,4.6748l-0.2373,0.2412
		c1.6474,1.6475,3.4521,3.0869,5.1484,4.665l-0.2461,0.2422c1.6568,1.6523,3.4522,3.0918,5.168,4.6748l-0.2466,0.2412
		c1.647,1.6426,3.4419,3.0928,5.1485,4.6709l-0.2369,0.2266c1.6573,1.6523,3.4424,3.0918,5.1485,4.6748l-0.2364,0.2422
		c1.6368,1.6465,3.4522,3.0918,5.1485,4.6699l-0.2368,0.2363c1.6372,1.6524,3.4321,3.0919,5.1484,4.6758l-0.2466,0.2412
		c1.647,1.6416,3.4424,3.0918,5.1582,4.67l-0.2466,0.2412c1.647,1.6474,3.4419,3.0879,5.1485,4.666l-0.2368,0.2412
		c1.6572,1.6523,3.4521,3.0918,5.1484,4.6748l-0.2363,0.2422c1.6465,1.6465,3.4516,3.0918,5.1484,4.6699l-0.2471,0.2363
		c1.6475,1.6524,3.4424,3.0918,5.1582,4.67l-0.246,0.2373c1.6669,1.6474,3.4619,3.0918,5.1484,4.6699l-0.2368,0.2363
		c1.6665,1.6524,3.4614,3.0928,5.1484,4.6748l-0.2368,0.2422c1.667,1.6524,3.4619,3.0918,5.1582,4.6699l-0.2363,0.2422
		c1.6465,1.6465,3.4516,3.0869,5.1484,4.6651l-0.2471,0.246c1.6573,1.6475,3.4522,3.0928,5.1685,4.6709l-0.2564,0.2413
		c1.6568,1.6474,3.4522,3.0918,5.1387,4.6699l-0.2373,0.2363c1.6572,1.6524,3.4522,3.0928,5.1587,4.6748l-0.2368,0.2324
		c1.6572,1.6465,3.4521,3.1016,5.1582,4.6797l-0.2462,0.2422c1.6465,1.6465,3.4512,3.0869,5.1583,4.665l-0.2568,0.2365
		c1.6572,1.6523,3.4521,3.0918,5.1679,4.6699l-0.2461,0.2422c1.6475,1.6465,3.4424,3.0869,5.1485,4.665l-0.2373,0.2461
		c1.6572,1.6524,3.4424,3.0918,5.1484,4.6699l-0.2363,0.2422c1.6367,1.6465,3.4521,3.0918,5.1484,4.67l-0.2363,0.2363
		c1.6367,1.6523,3.4316,3.0928,5.1484,4.6758l-0.247,0.2412c1.6474,1.6523,3.4423,3.0927,5.1582,4.6699l-0.2461,0.2422
		c1.6474,1.6474,3.4424,3.0869,5.1484,4.665l-0.2372,0.2363c1.6572,1.6524,3.4521,3.0977,5.1581,4.6797l-0.2461,0.2422
		c1.6367,1.6465,3.4424,3.0918,5.1484,4.6699l-0.246,0.2325c1.666,1.6513,3.4707,3.0918,5.1582,4.6699l-0.2471,0.2412
		c1.667,1.6475,3.4619,3.0918,5.1484,4.6699l-0.2363,0.2373c1.6572,1.6514,3.4619,3.0918,5.1582,4.6748l-0.2373,0.2412
		c1.6475,1.6523,3.4424,3.0918,5.1484,4.67l-0.2363,0.2422c1.6465,1.6464,3.4424,3.0869,5.1484,4.6699l-0.2461,0.2422
		c1.6562,1.6513,3.4512,3.0918,5.168,4.6699l-0.2471,0.2411c1.6475,1.6475,3.4424,3.0918,5.1582,4.6699l-0.246,0.2373
		c1.6474,1.6514,3.4423,3.0918,5.1386,4.6748l-0.2373,0.2412c1.6572,1.6524,3.4424,3.0918,5.1485,4.67L623,940.753
		c1.6465,1.6474,3.4522,3.0918,5.1582,4.6748l-0.2461,0.2422c1.6465,1.6464,3.4414,3.0918,5.1582,4.6699l-0.247,0.2314
		c1.6474,1.6475,3.4424,3.0869,5.1582,4.6699l-0.2461,0.2413c1.6465,1.6523,3.4424,3.0927,5.1377,4.6709l-0.2363,0.2412
		c1.6572,1.6474,3.4521,3.0918,5.1582,4.6757l-0.2364,0.2413c1.6367,1.6416,3.4424,3.0869,5.1485,4.665l-0.2461,0.2422
		c1.6465,1.6512,3.4414,3.0918,5.1582,4.6699l-0.2471,0.2412c1.6572,1.6475,3.4522,3.0869,5.1484,4.6699l-0.2363,0.2422
		c1.2227,1.2324,2.5537,2.3467,3.8565,3.4961c143.6718-48.3779,258.4277-159.5078,311.5878-300.917
		c-1.1337-1.1592-2.2675-2.3379-3.4511-3.4424C972.6993,677.4873,971.0811,675.8555,969.3946,674.2871z"/>
	<g id="cloud-cloud_1_">
		<linearGradient id="SVGID_1_" gradientUnits="userSpaceOnUse" x1="377.4629" y1="668.9883" x2="632.4883" y2="668.9883">
			<stop  offset="0.4969" style="stop-color:#48CFAD"/>
			<stop  offset="0.5" style="stop-color:#37BC9B"/>
		</linearGradient>
		<path fill="url(#SVGID_1_)" d="M437.8145,634.8946c17.9306,17.9306,41.7593,27.8183,67.166,27.8183
			c25.377,0,49.2559-9.8877,67.1855-27.8183l15.3965,15.4062c-22.0634,22.0527-51.3759,34.2236-82.582,34.2236
			s-60.5186-12.1709-82.6113-34.2236L437.8145,634.8946z M542.6368,605.3701L527.2315,589.92
			c-11.9048,11.9091-32.6172,11.9335-44.5215,0l-15.3955,15.4501c10.0693,10.0694,23.4438,15.5733,37.666,15.5733
			C519.2129,620.9434,532.5772,615.4395,542.6368,605.3701z M377.4629,695.2207c34.0962,34.0567,79.3672,52.8359,127.5176,52.8359
			c48.1602,0,93.4609-18.7792,127.5078-52.8359l-15.3769-15.4101c-29.9629,29.9433-69.7891,46.4336-112.1309,46.4336
			c-42.3711,0-82.1479-16.4903-112.1113-46.4336L377.4629,695.2207z"/>
		<linearGradient id="SVGID_2_" gradientUnits="userSpaceOnUse" x1="275.8653" y1="416.0591" x2="734.086" y2="416.0591">
			<stop  offset="0.5" style="stop-color:#FFFFFF"/>
			<stop  offset="0.5" style="stop-color:#F1F2F2"/>
		</linearGradient>
		<path fill="url(#SVGID_2_)" d="M346.6709,570.2188h294.4668c48.8506,0,88.8448-37.7256,92.583-85.6641
			c0.1875-2.417,0.3653-4.833,0.3653-7.3232c0-10.2578-1.7071-20.086-4.8037-29.2979
			c-12.2696-36.9809-47.0948-63.6601-88.1446-63.6601c-6.0752,0-11.9834,0.6015-17.7138,1.7011
			c0.3056-2.4013,0.5127-4.8525,0.5127-7.3232c0-31.2109-25.337-56.519-56.5342-56.519c-11.4307,0-22.0528,3.3979-30.9297,9.2314
			c-14.4688-40.4917-53.1016-69.4644-98.6289-69.4644c-57.8067,0-104.6944,46.8687-104.6944,104.6895
			c0,4.1572,0.2857,8.1963,0.7295,12.2305c-19.4892,1.7358-34.8159,18.1035-34.8159,38.0903c0,8.9409,3.0972,17.1616,8.2256,23.6265
			c-3.2446,2.1748-6.2529,4.7295-9.0737,7.3974c-10.2871,9.6753-17.5957,22.3145-20.6533,36.6211
			c-1.0254,4.8125-1.6963,9.749-1.6963,14.8433C275.8653,538.4844,307.545,570.2188,346.6709,570.2188z"/>
	</g>
</g>
</svg>
