<?xml version="1.0" encoding="utf-8"?>
<!-- Generator: Adobe Illustrator 17.1.0, SVG Export Plug-In . SVG Version: 6.00 Build 0)  -->
<!DOCTYPE svg PUBLIC "-//W3C//DTD SVG 1.1//EN" "http://www.w3.org/Graphics/SVG/1.1/DTD/svg11.dtd">
<svg version="1.1" id="blogging-service" xmlns="http://www.w3.org/2000/svg" xmlns:xlink="http://www.w3.org/1999/xlink" x="0px"
	 y="0px" viewBox="0 0 1009.961 1009.9804" enable-background="new 0 0 1009.961 1009.9804" xml:space="preserve">
<g id="blogging-service-blogging-service">
	<g id="blogging-service-label">
		<path fill="#FC6E51" d="M504.9805,0c278.8926,0,504.9805,226.0971,504.9805,505c0,278.8828-226.0879,504.9804-504.9805,504.9804
			C226.0874,1009.9804,0,783.8828,0,505C0,226.0971,226.0874,0,504.9805,0z"/>
	</g>
	<path id="blogging-service-shadow" fill="#E9573F" d="M985.4512,634.8056c-1.4297-1.8349-3.0869-3.4717-4.9111-4.9111
		c-1.4307-1.8252-3.0674-3.4629-4.9121-4.9023c-1.4297-1.835-3.087-3.4815-4.9209-4.9219c-1.4405-1.834-3.0586-3.4619-4.9024-4.9014
		c-1.4297-1.8447-3.0869-3.4912-4.9316-4.9316c-1.4297-1.8252-3.0479-3.4522-4.8819-4.8721
		c-1.4404-1.8447-3.0771-3.4922-4.9316-4.9414c-1.4307-1.835-3.0576-3.4619-4.9014-4.9024
		c-1.4306-1.8339-3.0683-3.4716-4.9121-4.9111c-1.4297-1.8349-3.0674-3.4717-4.9023-4.9121
		c-1.4395-1.835-3.0772-3.4717-4.9209-4.9111c-1.4307-1.835-3.0674-3.4824-4.9219-4.9219
		c-1.4209-1.8145-3.0576-3.4521-4.8721-4.8828c-1.4404-1.8438-3.0976-3.4911-4.9511-4.9413
		c-1.42-1.8242-3.0577-3.4611-4.8926-4.8916c-1.4395-1.8345-3.0771-3.4815-4.9111-4.9014
		c-1.4209-1.8349-3.0772-3.4819-4.9122-4.9219c-1.4404-1.8344-3.0771-3.4814-4.9111-4.9121
		c-1.4404-1.834-3.0781-3.4814-4.9219-4.9214c-1.4296-1.8247-3.0673-3.4614-4.9023-4.8823
		c-1.4199-1.834-3.0566-3.4814-4.8916-4.9111c-1.4404-1.8447-3.0967-3.502-4.9414-4.9413
		c-1.4307-1.8247-3.0576-3.4619-4.8818-4.8922c-1.4405-1.8345-3.0879-3.4819-4.9317-4.9116
		c-1.4199-1.8448-3.0771-3.4917-4.9121-4.9317c-1.4395-1.8247-3.0674-3.4619-4.9111-4.8921
		c-1.4209-1.8344-3.0674-3.4814-4.9121-4.9116c-1.42-1.8247-3.0577-3.4717-4.8916-4.9018
		c-1.4405-1.8443-3.0879-3.4917-4.9317-4.9312c-1.4199-1.835-3.0771-3.4819-4.9121-4.9121
		c-1.4199-1.8145-3.0566-3.4522-4.8721-4.8818c-1.4502-1.8448-3.0966-3.5015-4.9511-4.9414c-1.42-1.8248-3.0674-3.462-4.8916-4.8921
		c-1.4307-1.8345-3.0782-3.482-4.9121-4.9117c-1.4395-1.8349-3.0772-3.4814-4.9122-4.9121
		c-1.4395-1.8339-3.0761-3.4814-4.9111-4.9111c-1.4404-1.835-3.0771-3.4819-4.9121-4.9121
		c-1.4395-1.8345-3.0771-3.4815-4.9111-4.9116c-1.4405-1.8345-3.0879-3.4917-4.9219-4.9214
		c-1.4297-1.8252-3.0674-3.4619-4.9023-4.8823c-1.42-1.8443-3.0567-3.482-4.8917-4.9117c-1.4404-1.8447-3.0771-3.4814-4.9111-4.9218
		c-1.4404-1.8443-3.0976-3.4912-4.9316-4.9317c-1.4405-1.8242-3.0674-3.4619-4.9121-4.8916
		c-1.42-1.8447-3.0674-3.4814-4.9121-4.9121c-1.42-1.8437-3.0664-3.4814-4.9112-4.9111c-1.4209-1.835-3.0576-3.4717-4.8916-4.9024
		c-1.4404-1.8442-3.0781-3.4912-4.9121-4.9213c-1.4404-1.8345-3.0771-3.4717-4.9121-4.9019
		c-1.4394-1.8545-3.0967-3.5112-4.9512-4.9512c-1.4199-1.8144-3.0468-3.4424-4.872-4.8623
		c-1.4307-1.8447-3.0772-3.4912-4.9112-4.9219c-1.4404-1.8442-3.0781-3.4814-4.9121-4.9116
		c-1.4306-1.8345-3.0771-3.4717-4.9023-4.9018c-1.4395-1.8443-3.0869-3.4912-4.9219-4.9317
		c-1.4395-1.834-3.0762-3.4717-4.9111-4.9013c-1.4405-1.8448-3.0772-3.482-4.9112-4.9122
		c-1.4404-1.8442-3.0781-3.4814-4.9121-4.9116c-1.4306-1.8344-3.0576-3.4619-4.8926-4.8921
		c-1.4395-1.8442-3.0869-3.4912-4.9316-4.9316c-1.4394-1.834-3.0663-3.4717-4.9111-4.9014
		c-1.4307-1.8349-3.0674-3.4716-4.9014-4.9121c-5.1787-6.6377-13.168-10.9873-22.2412-10.9873H259.2168
		c-15.603,0-28.2768,12.6641-28.2768,28.2871V662.333c0,9.0634,4.3496,17.0527,10.977,22.2217
		c1.4405,1.8339,3.0674,3.4609,4.8926,4.8916c1.4395,1.8447,3.0967,3.5009,4.9414,4.9414c1.4297,1.8242,3.0571,3.4521,4.8818,4.8818
		c1.4399,1.8447,3.0869,3.4912,4.9316,4.9219c1.4297,1.8437,3.0674,3.4814,4.9111,4.9111c1.4307,1.835,3.0674,3.4717,4.9121,4.9023
		c1.4199,1.8448,3.0576,3.4815,4.8916,4.9112c1.4405,1.8447,3.0777,3.4824,4.9121,4.9121c1.44,1.8447,3.0772,3.4814,4.9117,4.9121
		c1.4399,1.834,3.0776,3.4814,4.9116,4.9111c1.4404,1.8448,3.0771,3.4814,4.9316,4.9219c1.4199,1.8447,3.0674,3.4815,4.9116,4.9111
		c1.4205,1.8448,3.0674,3.4727,4.9117,4.9024c1.4204,1.834,3.0576,3.4717,4.8921,4.9121c1.4301,1.834,3.0776,3.4609,4.9116,4.9014
		c1.4306,1.8447,3.0771,3.4814,4.9121,4.9219c1.4297,1.835,3.0771,3.4717,4.9116,4.9112c1.4399,1.8349,3.0772,3.4726,4.9116,4.912
		c1.44,1.834,3.0772,3.4717,4.9116,4.9121c1.44,1.834,3.0777,3.4717,4.9117,4.9111c1.4306,1.835,3.0674,3.4619,4.9023,4.9024
		c1.4297,1.8339,3.0772,3.4814,4.9214,4.9209c1.4302,1.8252,3.0674,3.4629,4.8921,4.8925c1.4394,1.834,3.0771,3.4815,4.9214,4.9219
		c1.4399,1.834,3.0771,3.4717,4.9116,4.9111c1.4404,1.835,3.0771,3.4717,4.9121,4.9122c1.4395,1.8339,3.0772,3.4716,4.9111,4.9111
		c1.4307,1.835,3.0777,3.4726,4.9219,4.9121c1.4302,1.8438,3.0772,3.4912,4.9121,4.9219c1.4297,1.8242,3.0674,3.4619,4.8916,4.8916
		c1.44,1.8447,3.0869,3.4911,4.9317,4.9219c1.4297,1.8339,3.0673,3.4716,4.9013,4.9013c1.4307,1.835,3.0674,3.4717,4.9024,4.9121
		c1.4297,1.834,3.0771,3.4717,4.9116,4.9121c1.4302,1.834,3.0771,3.4706,4.9116,4.9112c1.4302,1.8349,3.0772,3.4717,4.9121,4.912
		c1.4297,1.834,3.0772,3.4717,4.9112,4.9111c1.4306,1.835,3.0771,3.4824,4.9121,4.9219c1.4399,1.834,3.0771,3.4619,4.9116,4.9023
		c1.4302,1.8243,3.0771,3.4707,4.9018,4.9014c1.44,1.8447,3.087,3.4912,4.9219,4.9316c1.4395,1.8243,3.0772,3.462,4.9112,4.9014
		c1.4306,1.8252,3.0771,3.4727,4.9023,4.9024c1.4297,1.8339,3.0869,3.4814,4.9116,4.9121c1.44,1.8339,3.0869,3.4804,4.9116,4.9111
		c1.4302,1.835,3.0674,3.4814,4.9019,4.9014c1.4399,1.8447,3.0771,3.4921,4.9214,4.9218c1.4404,1.8448,3.0874,3.4922,4.9219,4.9317
		c1.4296,1.8144,3.0576,3.4521,4.8818,4.8719c1.4307,1.835,3.0771,3.4815,4.9121,4.9219c1.4497,1.835,3.0869,3.4815,4.9316,4.9219
		c1.4297,1.8242,3.0669,3.4717,4.9014,4.9014c1.4404,1.8349,3.0772,3.4814,4.9121,4.9121c1.4395,1.834,3.0772,3.4814,4.9112,4.912
		c1.4404,1.834,3.0776,3.4805,4.9218,4.9209c1.4302,1.8349,3.0674,3.4717,4.9219,4.9121c1.4199,1.834,3.0571,3.4717,4.8916,4.9014
		c1.4404,1.8252,3.0772,3.4716,4.9023,4.9023c1.4493,1.834,3.087,3.4912,4.9317,4.9316c1.4297,1.8243,3.0663,3.4707,4.9014,4.9014
		c1.4404,1.8252,3.0771,3.4717,4.9013,4.9014c1.4307,1.8349,3.0684,3.4824,4.9121,4.912c1.4502,1.8349,3.0869,3.4814,4.9121,4.9121
		c1.4297,1.834,3.0674,3.4717,4.9014,4.9014c1.4404,1.8447,3.0967,3.5019,4.9316,4.9316c0.7891,1.0059,1.7852,1.8145,2.7021,2.7022
		c205.5333-23.8682,373.3203-171.0821,427.5371-365.7256c-0.3555-0.3155-0.6309-0.7198-1.0059-1.0166
		C988.9131,637.8828,987.2764,636.2461,985.4512,634.8056z"/>
	<g id="blogging-service-blogging-service_1_">
		<g>
			<g>
				<path fill="#2C5871" d="M658.7432,319.3603H259.2168c-15.603,0-28.2768,12.6641-28.2768,28.2871V662.333
					c0,15.623,12.6738,28.287,28.2768,28.287h399.5263c15.6328,0,28.3066-12.6641,28.3066-28.287V347.6474
					C687.0498,332.0244,674.376,319.3603,658.7432,319.3603z"/>
			</g>
			<g>
				<rect x="569.3067" y="345.9707" fill="#FFFFFF" width="30.0127" height="28.9179"/>
			</g>
			<g>
				<rect x="516.9346" y="345.9707" fill="#FFFFFF" width="30.0029" height="28.9179"/>
			</g>
			<g>
				<linearGradient id="SVGID_1_" gradientUnits="userSpaceOnUse" x1="352.644" y1="353.1578" x2="565.3458" y2="707.1531">
					<stop  offset="0.5" style="stop-color:#FFFFFF"/>
					<stop  offset="0.5092" style="stop-color:#F1F2F2"/>
				</linearGradient>
				<rect x="266.2984" y="405.0395" fill="url(#SVGID_1_)" width="385.393" height="250.2319"/>
			</g>
			<g>
				<rect x="621.6983" y="345.9707" fill="#FFFFFF" width="29.9931" height="28.9179"/>
			</g>
		</g>
		<path fill="#4FC1E9" d="M476.4668,630.9589l-32.123-8.541c-0.0987-4.0341-0.336-8.0283-0.8291-11.9736l30.812-12.5654
			c3.521-1.4395,5.4243-5.1485,4.3496-8.2549l-5.8491-21.8467c-0.6113-3.3037-4.1621-5.5234-7.8701-5l-33.6328,4.6748
			c-1.5381-3.3633-3.2745-6.6777-5.0499-9.8633l24.2432-22.6054c2.6924-2.545,3.1953-6.6475,1.0654-9.2022l-13.2754-18.3349
			c-1.7167-2.8506-5.7402-3.669-9.0546-1.9336l-31.3838,17.2207c-2.2486-2.0215-4.5567-3.9551-6.9336-5.7696l14.8437-30.7226
			c1.6475-3.3833,0.5918-7.417-2.3174-9.0049l-18.9863-12.3291c-2.5937-2.0415-6.7461-1.3213-9.1426,1.5586l-14.2324,16.9053
			l-9.9023,11.7758c-0.1084,0.0787-0.1973,0.1382-0.2564,0.3257c-0.6904-0.247-1.3218-0.4931-2.0713-0.6709l0.7495-37.3803
			c0.0889-3.7378-2.5644-6.983-5.8486-7.1705l-12.457-1.8144l-8.4229-1.2329l-1.5385-0.2173c-1.5386-0.3745-3.1363,0-4.4976,0.8682
			c-1.4795,0.937-2.6924,2.4658-3.1758,4.3789l-5.9966,21.6494l-3.9448,14.2617c-2.2099,0.0791-4.478,0.1377-6.6875,0.3154
			c-0.1577-0.4043-0.2764-0.8183-0.3945-1.2426l-7.0225-16.0074l-0.2759-0.6611l-7.7622-17.6641
			c-0.6211-1.4106-1.6572-2.4463-2.8305-3.2256c-1.6968-1.1142-3.7281-1.5683-5.6021-0.8877l-6.8647,2.042v79.6622
			c4.0439-1.7256,8.206-3.1954,12.4668-4.4083c10.2768-2.8603,21.1069-4.2119,32.2124-3.7578l-6.0069,41.1573
			c-9.3398,0.2373-18.207,2.7129-26.2055,6.7568c-3.9449,1.9922-7.7525,4.251-11.1846,7.0225l-1.2822-1.0059v79.0312h94.98
			c3.3925-6.2832,6.1147-13,7.1899-20.4462c1.292-8.9454,0.5815-17.7139-1.7261-25.8604l38.3467-15.3271
			c4.8525,14.6562,6.4902,30.7236,4.0537,47.0957c-0.71,5-1.854,9.8232-3.2349,14.538h73.5474l2.249-16.6582
			C482.4536,635.3877,480.0669,631.9453,476.4668,630.9589z M333.3955,629.7558c-0.3549,2.4658-1.1337,4.7442-2.081,6.9141
			c-1.874,4.3301-4.7539,8.0781-8.4229,10.8291c-5.5429,4.1426-12.6836,6.1846-20.1396,5.1191
			c-14.7749-2.1504-25.0127-15.8203-22.8921-30.6045c2.1797-14.7949,15.8696-25.0421,30.6245-22.8925
			c4.7041,0.6718,8.8369,2.6142,12.4072,5.2871c3.669,2.791,6.5489,6.4697,8.4229,10.6718
			C333.2871,619.5283,334.1455,624.5586,333.3955,629.7558z M361.1006,588.4502l-3.5112,1.4004
			c-6.5293-9.2413-15.6226-16.4815-26.2749-21.1358c-1.7949-0.7695-3.5308-1.6377-5.4048-2.2695l5.4048-37.5576l0.5127-3.5205
			c10.5537,2.623,20.3769,6.8447,29.2734,12.3481c14.7354,9.123,26.8862,21.8071,35.3779,36.6606L361.1006,588.4502z"/>
		<path fill="#48CFAD" d="M596.3701,615.4453l-20.0419,2.8301l0.3945-2.8301l2.2891-16.0274l0.414-2.9688l1.5781-11.1055
			l0.7696-5.3457l1.6758-11.8359l0.6123-4.2412l1.3212-9.3203l0.3155-2.2291l11.5595,11.5494l4.2413,4.2412l8.038,8.0283
			l4.4483,4.4482l22.3486,22.3495l5.918,5.918l-2.2481,0.3047l-3.6699,0.543l-26.708,3.8164l-0.0889,0.0204l-0.2461,0.039
			L596.3701,615.4453z M689.2588,448.5254l56.5342,56.5239l-1.1445,1.1343l-66.4561,66.4755l-8.0576,8.049l-17.2792,17.289
			l-1.293,1.2823l-7.1406-7.1504l-8.0879-8.0684l-26.708-26.708l-6.9238-6.9336l-5.5039-5.4941l-2.169-2.17l1.2617-1.2621
			l2.9004-2.8896l37.1426-37.1733l8.0879-8.0679l25.7129-25.7124l8.0576-8.0679l10.0108-10.001L689.2588,448.5254z
			 M775.4014,477.0092c-0.3848,0.3843-0.8779,0.5425-1.3516,0.8872l0.2471,0.2374l-17.1221,17.1118l-0.9863,0.9966l-56.5244-56.5342
			l1.1348-1.1543l16.9638-16.9541l0.2168,0.2461c0.335-0.4434,0.5127-0.9761,0.9365-1.3809
			c4.9415-4.9409,13.2559-4.793,18.4541,0.375l37.6768,37.6963C780.2344,463.7236,780.3926,472.0478,775.4014,477.0092z"/>
	</g>
</g>
</svg>
