<?xml version="1.0" encoding="utf-8"?>
<!-- Generator: Adobe Illustrator 17.1.0, SVG Export Plug-In . SVG Version: 6.00 Build 0)  -->
<!DOCTYPE svg PUBLIC "-//W3C//DTD SVG 1.1//EN" "http://www.w3.org/Graphics/SVG/1.1/DTD/svg11.dtd">
<svg version="1.1" id="keyword-searching" xmlns="http://www.w3.org/2000/svg" xmlns:xlink="http://www.w3.org/1999/xlink" x="0px"
	 y="0px" viewBox="0 0 1009.961 1009.9804" enable-background="new 0 0 1009.961 1009.9804" xml:space="preserve">
<g id="keyword-searching-keyword-searching">
	<g id="keyword-searching-label">
		<path fill="#48CFAD" d="M504.9805,1009.9804C226.0923,1009.9804,0,783.8925,0,504.9902C0,226.0923,226.0923,0,504.9805,0
			c278.8828,0,504.9805,226.0923,504.9805,504.9902C1009.961,783.8925,783.8633,1009.9804,504.9805,1009.9804z"/>
	</g>
	<path id="keyword-searching-shadow" fill="#37BC9B" d="M930.9981,717.9648c-1.6172-1.667-3.2344-3.3144-4.9113-4.917
		c-1.6279-1.6621-3.2548-3.3232-4.9316-4.9267c-1.5977-1.6416-3.1953-3.2793-4.8623-4.8516
		c-1.627-1.6816-3.2646-3.3594-4.9609-4.9717c-1.6075-1.6572-3.2159-3.2988-4.8926-4.8818
		c-1.6074-1.6719-3.2246-3.3194-4.921-4.9268c-1.6084-1.6621-3.2256-3.3135-4.9023-4.9072
		c-1.627-1.6611-3.2354-3.3086-4.9111-4.9063c-1.6084-1.662-3.2256-3.3144-4.9121-4.912c-1.6172-1.6718-3.2451-3.3232-4.9316-4.9257
		c-1.5977-1.6524-3.1954-3.2793-4.8623-4.8633c-1.6075-1.6709-3.2256-3.333-4.9219-4.9258
		c-1.6074-1.6768-3.2344-3.3242-4.9113-4.9316c-1.6279-1.6622-3.2548-3.3243-4.9413-4.9268
		c-1.6074-1.6572-3.2158-3.2988-4.8925-4.8867c-1.6075-1.6671-3.2246-3.3135-4.9112-4.9121
		c-1.6181-1.667-3.2256-3.3135-4.9023-4.9112c-1.6172-1.6671-3.2344-3.3145-4.9209-4.9072
		c-1.6074-1.6621-3.2158-3.3086-4.9023-4.9072c-1.6171-1.666-3.2343-3.3232-4.9218-4.9209
		c-1.627-1.6768-3.2344-3.3242-4.9209-4.9219c-1.6084-1.6611-3.2158-3.3037-4.9024-4.8916
		c-1.5976-1.6621-3.2148-3.3047-4.8916-4.9023c-1.6172-1.6661-3.2353-3.3233-4.9218-4.9219
		c-1.6075-1.666-3.2247-3.3135-4.9122-4.9111c-1.6074-1.667-3.2246-3.3135-4.8916-4.9073
		c-1.6377-1.6718-3.2451-3.3232-4.9316-4.9258c-1.6074-1.6572-3.2246-3.3046-4.9111-4.8925
		c-1.6075-1.6768-3.2256-3.3233-4.9219-4.9317c-1.5977-1.6465-3.2051-3.2988-4.8721-4.8769
		c-1.6181-1.6768-3.2451-3.3282-4.9316-4.9365c-1.6172-1.667-3.2451-3.3233-4.9414-4.9312
		c-1.5879-1.6421-3.1856-3.2842-4.8623-4.8623c-1.627-1.6768-3.2549-3.3433-4.9512-4.9614
		c-1.6074-1.6514-3.2148-3.294-4.8926-4.8819c-1.6172-1.667-3.2246-3.3139-4.9013-4.9165
		c-1.6172-1.6518-3.2256-3.2895-4.8819-4.8823c-1.6279-1.6816-3.2744-3.3486-4.9707-4.9512
		c-1.5976-1.6621-3.1963-3.2988-4.873-4.8818c-1.6172-1.6719-3.2344-3.3242-4.9209-4.9268
		c-1.6084-1.667-3.2354-3.3138-4.9219-4.9116c-1.6074-1.6767-3.2451-3.3335-4.9414-4.9414
		c-1.588-1.6421-3.1953-3.2847-4.8721-4.8623c-1.6172-1.6768-3.2353-3.3335-4.9316-4.9316
		c-1.5977-1.6568-3.2051-3.3091-4.8819-4.897c-1.6084-1.6519-3.2158-3.294-4.8818-4.8916
		c-1.6279-1.6768-3.2656-3.3291-4.9512-4.9414c-1.6084-1.6719-3.2451-3.3194-4.9218-4.917
		c-1.6172-1.6768-3.2452-3.3335-4.9414-4.9414c-1.5879-1.627-3.1758-3.2544-4.8233-4.8228
		c-1.6269-1.6816-3.2646-3.3481-4.9512-4.9609c-1.6172-1.6665-3.2353-3.314-4.9316-4.9214
		c-1.6172-1.667-3.2245-3.3144-4.9111-4.9219c-1.5977-1.6469-3.2159-3.289-4.8828-4.8769c-1.627-1.667-3.2442-3.3242-4.9415-4.9268
		c-1.6074-1.6572-3.2148-3.3188-4.8916-4.9018c-1.6074-1.6617-3.2255-3.2993-4.8916-4.897
		c-1.6181-1.667-3.2451-3.3237-4.9218-4.9214c-1.6172-1.667-3.2246-3.3237-4.9121-4.9116c-1.6172-1.667-3.2344-3.3145-4.9112-4.9219
		c-1.6181-1.6621-3.2549-3.3237-4.9414-4.9165c-1.5976-1.6616-3.1963-3.2993-4.8818-4.8872
		c-1.6084-1.667-3.2256-3.3237-4.9219-4.9214c-1.5976-1.6567-3.1953-3.2944-4.8721-4.8725
		c-1.6181-1.6866-3.2451-3.3433-4.9414-4.9512c-1.6181-1.6616-3.2256-3.3135-4.9121-4.9165
		c-1.6172-1.6616-3.2353-3.3091-4.9013-4.9068c-1.628-1.6718-3.2452-3.3237-4.9415-4.9267c-1.5976-1.6519-3.1953-3.2891-4.873-4.877
		c-1.6172-1.6767-3.2441-3.334-4.9307-4.9316c-1.6084-1.6621-3.2255-3.3237-4.9218-4.9116
		c-1.6075-1.6568-3.2051-3.3042-4.8916-4.9019c-1.6182-1.667-3.2354-3.3188-4.9219-4.9219
		c-1.6074-1.6567-3.2354-3.3037-4.9024-4.9013c-1.6171-1.667-3.2343-3.3145-4.9209-4.9219
		c-1.5986-1.6372-3.1962-3.2793-4.8623-4.8672c-1.6279-1.6767-3.2548-3.3389-4.9511-4.956
		c-1.6182-1.6573-3.2256-3.314-4.9121-4.9019c-1.6172-1.6616-3.2247-3.314-4.9122-4.9116
		c-29.7016-30.6641-71.5844-49.8819-118.1225-49.8819c-90.0337,0-163.019,71.5557-163.019,159.8379
		c0,45.1035,19.144,85.7779,49.8076,114.834c1.6079,1.667,3.2207,3.314,4.9023,4.9116c1.6221,1.6675,3.2446,3.3287,4.9312,4.9312
		c1.6128,1.6523,3.2202,3.3047,4.892,4.8926c1.6172,1.667,3.2349,3.3232,4.9214,4.9218c1.6031,1.6563,3.2105,3.299,4.8872,4.882
		c1.627,1.6816,3.2598,3.3584,4.9707,4.9706c1.5977,1.6416,3.1905,3.2744,4.8575,4.8574c1.6128,1.6719,3.2402,3.3291,4.9218,4.9268
		c1.6172,1.667,3.23,3.3134,4.9117,4.9121c1.6079,1.6562,3.2202,3.3036,4.8969,4.8916c1.627,1.6816,3.2598,3.3427,4.9512,4.956
		c1.5977,1.6524,3.2002,3.2891,4.8721,4.8721c1.6177,1.6621,3.2451,3.3242,4.9267,4.9268c1.6172,1.6669,3.23,3.3134,4.9117,4.9062
		c1.6079,1.6621,3.2202,3.3096,4.9018,4.9072c1.6123,1.667,3.2305,3.3135,4.9116,4.9014c1.6177,1.6777,3.2349,3.334,4.9214,4.9316
		c1.603,1.6475,3.2158,3.2989,4.8775,4.877c1.6225,1.6719,3.2548,3.3389,4.9463,4.9414c1.6127,1.6719,3.2348,3.3193,4.9213,4.9268
		c1.5928,1.6474,3.1958,3.2793,4.8677,4.8574c1.6323,1.6914,3.2593,3.3584,4.9707,4.9814c1.5982,1.6416,3.1958,3.2735,4.8628,4.8516
		c1.6123,1.6777,3.2446,3.3291,4.936,4.9365c1.608,1.6572,3.2105,3.3047,4.897,4.8975c1.6123,1.662,3.2251,3.3242,4.9068,4.916
		c1.6176,1.6621,3.2202,3.3096,4.9067,4.9023c1.6128,1.667,3.2402,3.3282,4.917,4.9219c1.6123,1.666,3.2397,3.3232,4.9311,4.9258
		c1.6079,1.6523,3.2007,3.29,4.8775,4.8828c1.6221,1.6719,3.2446,3.334,4.9365,4.9355c1.5977,1.6524,3.2051,3.2803,4.8721,4.8584
		c1.6269,1.6964,3.2646,3.3682,4.9756,4.9854c1.6025,1.6426,3.2055,3.2842,4.8671,4.8721c1.6177,1.6621,3.2305,3.3144,4.917,4.9072
		c1.6026,1.6621,3.2203,3.3135,4.9019,4.9111c1.6177,1.667,3.2349,3.3242,4.9214,4.917c1.6225,1.6768,3.2549,3.334,4.9463,4.9414
		c1.583,1.6367,3.1758,3.2647,4.833,4.833c1.6421,1.6914,3.2793,3.373,4.9902,5c1.603,1.6475,3.211,3.29,4.8823,4.8682
		c1.5982,1.6514,3.1958,3.2939,4.8824,4.8818c1.6171,1.6768,3.2451,3.333,4.9316,4.9405c1.6074,1.6621,3.2349,3.3144,4.9111,4.9072
		c1.6079,1.6621,3.2256,3.3096,4.9024,4.9072c1.6074,1.6563,3.2246,3.3135,4.9121,4.9014c1.6172,1.6865,3.2538,3.3438,4.9404,4.9561
		c1.5987,1.6475,3.2061,3.2793,4.8721,4.8672c1.6182,1.667,3.2353,3.334,4.9413,4.9365c1.6085,1.667,3.2256,3.3145,4.9121,4.917
		c1.6074,1.6465,3.2051,3.2891,4.8721,4.8672c1.6181,1.6719,3.2353,3.3389,4.9414,4.9366c1.6084,1.6669,3.2256,3.3134,4.8916,4.9013
		c1.6181,1.6572,3.2158,3.3096,4.9023,4.8975c1.6172,1.6816,3.2549,3.3486,4.9512,4.9561c1.6172,1.662,3.2246,3.3086,4.9219,4.9062
		c1.5976,1.6572,3.2051,3.2998,4.872,4.8877c1.6075,1.6572,3.2159,3.3037,4.8916,4.8965c1.628,1.6718,3.2549,3.3388,4.961,4.9414
		c1.5879,1.6523,3.1963,3.29,4.873,4.8779c1.6172,1.666,3.2344,3.3232,4.9317,4.9307c1.5976,1.667,3.2148,3.3144,4.9111,4.9121
		c1.6074,1.667,3.2256,3.3135,4.9014,4.9111c1.6181,1.667,3.2353,3.3193,4.9121,4.9121c1.6172,1.6621,3.2256,3.3145,4.9219,4.9121
		c1.5976,1.6563,3.2148,3.3135,4.8916,4.9014c1.6181,1.667,3.2255,3.3193,4.9121,4.9023c1.6074,1.6709,3.2256,3.3232,4.9111,4.9268
		c1.6182,1.6709,3.2451,3.3281,4.9414,4.9307c1.5977,1.6621,3.2158,3.2998,4.8828,4.8877c1.6074,1.666,3.2344,3.3134,4.9219,4.9111
		c1.6074,1.667,3.2247,3.3193,4.9111,4.9121c1.6074,1.6611,3.2061,3.2988,4.8819,4.8867c1.6279,1.6817,3.2548,3.3535,4.9511,4.9561
		c1.5977,1.6474,3.1953,3.289,4.8731,4.8672c1.6172,1.6669,3.2246,3.3242,4.9111,4.9218c1.6475,1.6914,3.2842,3.3682,4.9912,4.9864
		c1.5879,1.6367,3.1758,3.2539,4.8223,4.8173c1.6279,1.6768,3.2451,3.3291,4.9316,4.9414c1.6172,1.6622,3.2354,3.3135,4.9219,4.9073
		c4.9111,5.0791,10.2676,9.7051,15.8106,14.118C819.3994,915.0009,900.709,837,951.6905,740.457
		c-4.8819-6.1895-10.0498-12.1563-15.7901-17.5801C934.293,721.205,932.6748,719.5576,930.9981,717.9648z"/>
	<g id="keyword-searching-keyword-searching_1_">
		<path fill="#FFFFFF" d="M587.9375,439.9638c0-88.2822-72.9853-159.8379-163.019-159.8379s-163.019,71.5557-163.019,159.8379
			c0,88.2535,72.9854,159.8184,163.019,159.8184S587.9375,528.2173,587.9375,439.9638z"/>
		<path fill="#4FC1E9" d="M424.9185,569.1289c-72.7632,0-131.7437-57.8365-131.7437-129.1651
			c0-71.3427,58.9805-129.1689,131.7437-129.1689c72.7436,0,131.7436,57.8262,131.7436,129.1689
			C556.6621,511.2924,497.6621,569.1289,424.9185,569.1289z"/>
		<path fill="#FC6E51" d="M629.835,565.2177l-59.5723,61.545l-14.7148-12.8418c-17.8125-15.583-19.4209-42.3858-3.5313-59.8828
			c15.8799-17.4766,43.2198-19.045,61.0518-3.4517L629.835,565.2177z"/>
		<path fill="#FC6E51" d="M737.1231,715.6464c-15.8887,17.4971-43.2383,19.0557-61.0801,3.4727l-94.5859-82.5928l59.5625-61.5488
			l92.5527,80.8262C751.4151,671.3623,753.003,698.1552,737.1231,715.6464z"/>
		<path fill="#2C5871" d="M367.5069,466.3076h-9.8438l-9.3843-32.3599c-0.3994-1.4057-0.9126-3.4419-1.5092-6.0952
			c-0.6016-2.6582-0.9761-4.5122-1.0948-5.5478c-0.2509,1.5781-0.6655,3.6347-1.2373,6.1542
			c-0.5674,2.5201-1.0312,4.4141-1.4057,5.6417l-9.1675,32.207h-9.8384l-7.1509-27.1621l-7.2734-27.0884h9.2461l7.8955,31.6108
			c1.2378,5.084,2.1255,9.5567,2.6533,13.4327c0.271-2.1006,0.6953-4.4581,1.2573-7.0469c0.5523-2.5987,1.0503-4.6944,1.5044-6.3072
			l9.0196-31.6894h8.9599l9.2368,31.8325c0.8677,2.9443,1.8199,7.3574,2.8062,13.211c0.3599-3.5206,1.2773-8.0381,2.7168-13.502
			l7.8711-31.5415h9.1621L367.5069,466.3076z M444.6983,466.3076h-9.8379l-9.3945-32.3599
			c-0.4092-1.4057-0.9122-3.4419-1.5137-6.0952c-0.607-2.6582-0.9668-4.5122-1.0899-5.5478
			c-0.2568,1.5781-0.666,3.6347-1.2334,6.1542c-0.5669,2.5201-1.0449,4.4141-1.4248,5.6417l-9.1577,32.207h-9.8335l-7.1553-27.1621
			l-7.2592-27.0884h9.2168l7.9248,31.6108c1.2378,5.084,2.1059,9.5567,2.6533,13.4327c0.271-2.1006,0.6904-4.4581,1.2427-7.0469
			c0.5522-2.5987,1.0605-4.6944,1.5088-6.3072l9.0146-31.6894h8.9658l9.2266,31.8325c0.8877,2.9443,1.8247,7.3574,2.8057,13.211
			c0.3798-3.5206,1.2871-8.0381,2.7275-13.502l7.8652-31.5415h9.168L444.6983,466.3076z M521.8858,466.3076h-9.8535l-9.3946-32.3599
			c-0.4043-1.4057-0.9121-3.4419-1.499-6.0952c-0.6162-2.6582-0.9912-4.5122-1.1045-5.5478
			c-0.2412,1.5781-0.6606,3.6347-1.2329,6.1542c-0.5522,2.5201-1.0405,4.4141-1.4053,5.6417l-9.1675,32.207h-9.8334l-7.1656-27.1621
			l-7.2636-27.0884h9.2314l7.915,31.6108c1.2329,5.084,2.1206,9.5567,2.6485,13.4327c0.2661-2.1006,0.6904-4.4581,1.2519-7.0469
			c0.5625-2.5987,1.0655-4.6944,1.5044-6.3072l9.0098-31.6894h8.9702l9.2466,31.8325c0.8677,2.9443,1.81,7.3574,2.7964,13.211
			c0.3745-3.5206,1.292-8.0381,2.7314-13.502l7.8613-31.5415h9.1622L521.8858,466.3076z"/>
	</g>
</g>
</svg>
