<?xml version="1.0" encoding="utf-8"?>
<!-- Generator: Adobe Illustrator 18.0.0, SVG Export Plug-In . SVG Version: 6.00 Build 0)  -->
<!DOCTYPE svg PUBLIC "-//W3C//DTD SVG 1.1//EN" "http://www.w3.org/Graphics/SVG/1.1/DTD/svg11.dtd">
<svg version="1.1" id="Layer_1" xmlns="http://www.w3.org/2000/svg" xmlns:xlink="http://www.w3.org/1999/xlink" x="0px" y="0px"
	 viewBox="0 0 141.1 115.3" enable-background="new 0 0 141.1 115.3" xml:space="preserve">
<g>
	<g>
		<g>
			<path fill="#545662" d="M114.3,83.5H26.8c-6.9,0-12.5-5.6-12.5-12.5V20.9c0-6.9,5.6-12.5,12.5-12.5h87.5
				c6.9,0,12.5,5.6,12.5,12.5V71C126.8,77.9,121.2,83.5,114.3,83.5z M26.8,13.4c-4.1,0-7.5,3.4-7.5,7.5V71c0,4.1,3.4,7.5,7.5,7.5
				h87.5c4.1,0,7.5-3.4,7.5-7.5V20.9c0-4.1-3.4-7.5-7.5-7.5H26.8z"/>
		</g>
		<g>
			<path fill="#545662" d="M128.1,106.8h-115c-4.1,0-7.5-3.4-7.5-7.5v-3.9c0-4.1,3.4-7.5,7.5-7.5h115c4.1,0,7.5,3.4,7.5,7.5v3.9
				C135.6,103.5,132.2,106.8,128.1,106.8z M13.1,92.9c-1.4,0-2.5,1.1-2.5,2.5v3.9c0,1.4,1.1,2.5,2.5,2.5h115c1.4,0,2.5-1.1,2.5-2.5
				v-3.9c0-1.4-1.1-2.5-2.5-2.5H13.1z"/>
		</g>
	</g>
	<g>
		<g>
			<path fill="#1C75BC" d="M75.9,67.8c-2.9-2.9-7.7-2.9-10.7,0l-4.9-4.9c5.7-5.7,14.9-5.7,20.5,0L75.9,67.8z"/>
		</g>
		<g>
			<path fill="#1C75BC" d="M87.3,56.4c-9.2-9.2-24.2-9.2-33.5,0l-4.9-4.9c11.9-11.9,31.4-11.9,43.3,0L87.3,56.4z"/>
		</g>
		<g>
			<path fill="#1C75BC" d="M42,44.6l-4.9-4.9c18.5-18.5,48.5-18.5,66.9,0l-4.9,4.9C83.4,28.8,57.8,28.8,42,44.6z"/>
		</g>
	</g>
</g>
</svg>
