<?xml version="1.0" encoding="utf-8"?>
<!-- Generator: Adobe Illustrator 18.0.0, SVG Export Plug-In . SVG Version: 6.00 Build 0)  -->
<!DOCTYPE svg PUBLIC "-//W3C//DTD SVG 1.1//EN" "http://www.w3.org/Graphics/SVG/1.1/DTD/svg11.dtd">
<svg version="1.1" id="Layer_1" xmlns="http://www.w3.org/2000/svg" xmlns:xlink="http://www.w3.org/1999/xlink" x="0px" y="0px"
	 viewBox="0 0 148.4 147.1" enable-background="new 0 0 148.4 147.1" xml:space="preserve">
<g>
	<g>
		<path fill="#1C75BC" d="M43.1,43.6v59.8c0,5.3,4.3,9.6,9.6,9.6h42.6c5.3,0,9.6-4.3,9.6-9.6v-44c0-2.6-1-5-2.8-6.8L86.3,36.8
			C84.5,35,82.1,34,79.5,34H52.7C47.4,34,43.1,38.3,43.1,43.6z M82.8,40.4l15.8,15.8c0.9,0.9,1.4,2,1.4,3.3v44
			c0,2.6-2.1,4.6-4.6,4.6H52.8c-2.6,0-4.6-2.1-4.6-4.6V43.7c0-2.6,2.1-4.6,4.6-4.6h26.8C80.8,39,81.9,39.5,82.8,40.4z"/>
		<rect x="59.6" y="53.9" fill="#1C75BC" width="28.8" height="5"/>
		<rect x="59.6" y="71" fill="#1C75BC" width="28.8" height="5"/>
		<rect x="59.6" y="88.2" fill="#1C75BC" width="28.8" height="5"/>
	</g>
	<g>
		<path fill="#545662" d="M92.8,22.5c17.2,6.3,30.3,21.1,34.3,39.2l4.9-1.1c-4.5-20.4-19.6-36.9-39.1-43.4v-3c0-2.5-2.7-4-4.8-2.8
			l-6.6,3.8c-2.1,1.2-2.1,4.3,0,5.5l6.6,3.8C90,25.7,92.4,24.5,92.8,22.5z"/>
		<path fill="#545662" d="M21.2,66.3l3.8-6.6c1.1-1.9-0.1-4.3-2.2-4.7c6.3-17.3,21.1-30.5,39.3-34.5L61,15.6
			c-20.5,4.5-37,19.7-43.5,39.3h-3c-2.5,0-4,2.7-2.8,4.8l3.8,6.6C16.9,68.4,20,68.4,21.2,66.3z"/>
		<path fill="#545662" d="M69.9,126.3l-6.6-3.8c-2.1-1.2-4.8,0.3-4.8,2.8v0.4c-18.8-5.6-33.3-21-37.6-40.3L16,86.5
			c4.8,21.5,21.3,38.7,42.5,44.4v2c0,2.5,2.7,4,4.8,2.8l6.6-3.8C72,130.6,72,127.5,69.9,126.3z"/>
		<path fill="#545662" d="M136.1,87.6l-3.8-6.6c-1.2-2.1-4.3-2.1-5.5,0l-3.8,6.6c-1.1,1.9,0,4.3,2.1,4.7
			c-6.3,17.2-21.1,30.3-39.2,34.3l1.1,4.9c20.4-4.5,36.9-19.6,43.4-39.1h3C135.8,92.4,137.4,89.7,136.1,87.6z"/>
	</g>
</g>
</svg>
